<svg xmlns="http://www.w3.org/2000/svg" width="0" height="0">
  <clipPath id="clip" clipPathUnits="objectBoundingBox">
    <path d="M0.7049 0.2604C0.7616 0.3503 0.8750 0.5301 0.8750 0.5301C0.8750 0.5301 0.9475 0.6474 0.9487 0.7154C0.9500 0.7900 0.9027 0.8625 0.8367 0.8881C0.7836 0.9087 0.7245 0.9002 0.6695 0.8863C0.6144 0.8724 0.5597 0.8532 0.5031 0.8532C0.4371 0.8531 0.3737 0.8791 0.3089 0.8928C0.2498 0.9054 0.1712 0.9091 0.1226 0.8633C0.0762 0.8194 0.0500 0.7523 0.0597 0.6864C0.0678 0.6319 0.0976 0.5841 0.1266 0.5383C0.1878 0.4419 0.2490 0.3455 0.3101 0.2491C0.3328 0.2134 0.3557 0.1774 0.3853 0.1482C0.4149 0.1189 0.4524 0.0965 0.4928 0.0939C0.5389 0.0909 0.5838 0.1138 0.6185 0.1462C0.6531 0.1785 0.6792 0.2197 0.7049 0.2604Z" />
  </clipPath>
</svg>