<svg xmlns="http://www.w3.org/2000/svg" width="0" height="0">
  <clipPath id="clip" clipPathUnits="objectBoundingBox">
    <path d="M0.726,0.207 C0.698,0.156,0.668,0.105,0.629,0.065 C0.59,0.025,0.54,-0.003,0.488,0 C0.443,0.004,0.401,0.031,0.368,0.068 C0.334,0.104,0.309,0.148,0.283,0.193 C0.215,0.312,0.146,0.431,0.077,0.551 C0.045,0.607,0.011,0.667,0.002,0.734 C-0.009,0.816,0.021,0.899,0.073,0.953 C0.127,1,0.216,1,0.282,0.99 C0.355,0.973,0.426,0.941,0.5,0.941 C0.563,0.941,0.625,0.964,0.687,0.982 C0.748,0.999,0.815,1,0.874,0.984 C0.948,0.952,1,0.862,1,0.77 C0.999,0.686,0.917,0.541,0.917,0.541 C0.917,0.541,0.79,0.318,0.726,0.207" />
  </clipPath>
</svg>