<svg xmlns="http://www.w3.org/2000/svg" width="0" height="0">
  <clipPath id="clip" clipPathUnits="objectBoundingBox">
    <path d="M0.7263 0.2066C0.6975 0.1562 0.6683 0.1051 0.6293 0.0651C0.5904 0.0250 0.5400 -0.0034 0.4883 0.0003C0.4430 0.0036 0.4009 0.0314 0.3677 0.0676C0.3345 0.1038 0.3087 0.1484 0.2833 0.1926C0.2147 0.3119 0.1460 0.4313 0.0774 0.5507C0.0447 0.6074 0.0113 0.6666 0.0023 0.7341C-0.0086 0.8158 0.0207 0.8989 0.0728 0.9532C0.1273 1.0099 0.2156 1.0053 0.2820 0.9898C0.3547 0.9727 0.4258 0.9406 0.4999 0.9407C0.5634 0.9407 0.6248 0.9644 0.6866 0.9817C0.7484 0.9989 0.8147 1.0094 0.8743 0.9839C0.9483 0.9523 1.0014 0.8624 1.0000 0.7701C0.9986 0.6858 0.9172 0.5405 0.9172 0.5405C0.9172 0.5405 0.7899 0.3179 0.7263 0.2066Z" />
  </clipPath>
</svg>