<svg xmlns="http://www.w3.org/2000/svg" width="0" height="0">
  <clipPath id="clip" clipPathUnits="objectBoundingBox">
    <path d="M0.352,0.063 C0.363,0.053,0.369,0.048,0.374,0.044 C0.448,-0.015,0.552,-0.015,0.626,0.044 C0.631,0.048,0.637,0.053,0.648,0.063 C0.652,0.066,0.654,0.068,0.655,0.069 C0.682,0.092,0.713,0.107,0.747,0.114 C0.749,0.114,0.751,0.115,0.756,0.116 C0.771,0.118,0.778,0.12,0.785,0.121 C0.876,0.144,0.94,0.226,0.942,0.321 C0.942,0.328,0.942,0.335,0.941,0.35 C0.941,0.355,0.94,0.358,0.94,0.36 C0.94,0.395,0.947,0.43,0.963,0.461 C0.964,0.463,0.965,0.465,0.968,0.469 C0.975,0.483,0.978,0.489,0.981,0.495 C1,0.582,0.997,0.684,0.925,0.745 C0.92,0.749,0.914,0.753,0.902,0.762 C0.898,0.765,0.896,0.767,0.894,0.768 C0.866,0.789,0.845,0.817,0.831,0.848 C0.83,0.851,0.829,0.853,0.827,0.858 C0.821,0.872,0.818,0.879,0.815,0.884 C0.773,0.97,0.68,1,0.588,0.995 C0.582,0.994,0.575,0.992,0.56,0.988 C0.555,0.987,0.553,0.986,0.551,0.985 C0.517,0.977,0.483,0.977,0.449,0.985 C0.447,0.986,0.445,0.987,0.44,0.988 C0.425,0.992,0.418,0.994,0.412,0.995 C0.32,1,0.227,0.97,0.185,0.884 C0.182,0.879,0.179,0.872,0.173,0.858 C0.171,0.853,0.17,0.851,0.169,0.848 C0.155,0.817,0.134,0.789,0.106,0.768 C0.104,0.767,0.102,0.765,0.098,0.762 C0.086,0.753,0.08,0.749,0.075,0.745 C0.003,0.684,-0.02,0.582,0.019,0.495 C0.022,0.489,0.025,0.483,0.032,0.469 C0.035,0.465,0.036,0.463,0.037,0.461 C0.053,0.43,0.06,0.395,0.06,0.36 C0.06,0.358,0.059,0.355,0.059,0.35 C0.058,0.335,0.058,0.328,0.058,0.321 C0.06,0.226,0.124,0.144,0.215,0.121 C0.222,0.12,0.229,0.118,0.244,0.116 C0.249,0.115,0.251,0.114,0.253,0.114 C0.287,0.107,0.318,0.092,0.345,0.069 C0.346,0.068,0.348,0.066,0.352,0.063" />
  </clipPath>
</svg>