<svg xmlns="http://www.w3.org/2000/svg" width="0" height="0">
  <clipPath id="clip" clipPathUnits="objectBoundingBox">
    <path d="M0.427,0.031 C0.429,0.029,0.43,0.028,0.43,0.028 C0.47,-0.009,0.53,-0.009,0.57,0.028 C0.57,0.028,0.571,0.029,0.573,0.031 C0.574,0.032,0.574,0.032,0.575,0.033 C0.6,0.057,0.635,0.066,0.669,0.058 C0.669,0.058,0.67,0.058,0.672,0.057 C0.674,0.057,0.675,0.056,0.676,0.056 C0.728,0.044,0.781,0.074,0.796,0.126 C0.797,0.127,0.797,0.128,0.798,0.13 C0.798,0.131,0.798,0.132,0.798,0.133 C0.808,0.166,0.834,0.192,0.867,0.202 C0.868,0.202,0.869,0.202,0.87,0.202 C0.872,0.203,0.873,0.203,0.874,0.204 C0.926,0.219,0.956,0.272,0.944,0.324 C0.944,0.325,0.943,0.326,0.943,0.328 C0.942,0.33,0.942,0.331,0.942,0.331 C0.934,0.365,0.943,0.4,0.967,0.425 C0.968,0.426,0.968,0.426,0.969,0.427 C0.971,0.429,0.972,0.43,0.972,0.43 C1,0.47,1,0.53,0.972,0.57 C0.972,0.57,0.971,0.571,0.969,0.573 C0.968,0.574,0.968,0.574,0.967,0.575 C0.943,0.6,0.934,0.635,0.942,0.669 C0.942,0.669,0.942,0.67,0.943,0.672 C0.943,0.674,0.944,0.675,0.944,0.676 C0.956,0.728,0.926,0.781,0.874,0.796 C0.873,0.797,0.872,0.797,0.87,0.798 C0.869,0.798,0.868,0.798,0.867,0.798 C0.834,0.808,0.808,0.834,0.798,0.867 C0.798,0.868,0.798,0.869,0.798,0.87 C0.797,0.872,0.797,0.873,0.796,0.874 C0.781,0.926,0.728,0.956,0.676,0.944 C0.675,0.944,0.674,0.943,0.672,0.943 C0.67,0.942,0.669,0.942,0.669,0.942 C0.635,0.934,0.6,0.943,0.575,0.967 C0.574,0.968,0.574,0.968,0.573,0.969 C0.571,0.971,0.57,0.972,0.57,0.972 C0.53,1,0.47,1,0.43,0.972 C0.43,0.972,0.429,0.971,0.427,0.969 C0.426,0.968,0.426,0.968,0.425,0.967 C0.4,0.943,0.365,0.934,0.331,0.942 C0.331,0.942,0.33,0.942,0.328,0.943 C0.326,0.943,0.325,0.944,0.324,0.944 C0.272,0.956,0.219,0.926,0.204,0.874 C0.203,0.873,0.203,0.872,0.202,0.87 C0.202,0.869,0.202,0.868,0.202,0.867 C0.192,0.834,0.166,0.808,0.133,0.798 C0.132,0.798,0.131,0.798,0.13,0.798 C0.128,0.797,0.127,0.797,0.126,0.796 C0.074,0.781,0.044,0.728,0.056,0.676 C0.056,0.675,0.057,0.674,0.057,0.672 C0.058,0.67,0.058,0.669,0.058,0.669 C0.066,0.635,0.057,0.6,0.033,0.575 C0.032,0.574,0.032,0.574,0.031,0.573 C0.029,0.571,0.028,0.57,0.028,0.57 C-0.009,0.53,-0.009,0.47,0.028,0.43 C0.028,0.43,0.029,0.429,0.031,0.427 C0.032,0.426,0.032,0.426,0.033,0.425 C0.057,0.4,0.066,0.365,0.058,0.331 C0.058,0.331,0.058,0.33,0.057,0.328 C0.057,0.326,0.056,0.325,0.056,0.324 C0.044,0.272,0.074,0.219,0.126,0.204 C0.127,0.203,0.128,0.203,0.13,0.202 C0.131,0.202,0.132,0.202,0.133,0.202 C0.166,0.192,0.192,0.166,0.202,0.133 C0.202,0.132,0.202,0.131,0.202,0.13 C0.203,0.128,0.203,0.127,0.204,0.126 C0.219,0.074,0.272,0.044,0.324,0.056 C0.325,0.056,0.326,0.057,0.328,0.057 C0.33,0.058,0.331,0.058,0.331,0.058 C0.365,0.066,0.4,0.057,0.425,0.033 C0.426,0.032,0.426,0.032,0.427,0.031" />
  </clipPath>
</svg>